<svg width="1515" height="983" viewBox="0 0 1515 983" fill="none" xmlns="http://www.w3.org/2000/svg">
<g filter="url(#filter0_f_403_12)">
<path d="M678.283 973.206H52.7394C49.4591 973.206 46.7998 975.265 46.7998 977.805V977.869C46.7998 980.409 49.4591 982.467 52.7394 982.467H678.283C681.564 982.467 684.223 980.409 684.223 977.869V977.805C684.223 975.265 681.564 973.206 678.283 973.206Z" fill="#999999"/>
</g>
<g filter="url(#filter1_f_403_12)">
<path d="M1488.68 973.206H1033.74C1031.35 973.206 1029.42 975.265 1029.42 977.805V977.869C1029.42 980.409 1031.35 982.467 1033.74 982.467H1488.68C1491.06 982.467 1493 980.409 1493 977.869V977.805C1493 975.265 1491.06 973.206 1488.68 973.206Z" fill="#999999"/>
</g>
<g opacity="0.997">
<g opacity="0.997">
<path opacity="0.997" d="M359.461 799.008L329.156 975.038H334.347L338.068 956.797L370.214 799.221L359.461 799.008Z" fill="#666666"/>
<path opacity="0.997" d="M329.828 974.822C328.554 974.667 329.074 978.736 329.074 978.736L334.644 979.064C334.644 979.064 335.081 975.66 334.047 974.954C333.474 974.562 331.628 975.041 329.828 974.822Z" fill="black"/>
</g>
<g opacity="0.997">
<path opacity="0.997" d="M385.457 798.563L357.571 970.289H360.925C360.925 970.289 363.23 965.347 365.941 950.745C377.515 888.397 395.545 798.766 395.545 798.766L385.457 798.563Z" fill="#666666"/>
<path opacity="0.997" d="M357.318 969.951L356.681 973.696L361.908 973.863L361.275 969.966L357.318 969.951Z" fill="#0B0B0B"/>
</g>
<g opacity="0.997">
<g opacity="0.997">
<path opacity="0.997" d="M456.229 799.799L484.645 971.348L481.997 971.171C473.102 917.669 457.359 853.301 448.464 799.799H456.229Z" fill="#666666"/>
<path opacity="0.997" d="M484.893 970.9L485.797 973.906L481.757 973.923L481.822 970.825C481.822 970.825 483.597 970.992 484.893 970.901C486.189 970.81 484.893 970.9 484.893 970.9Z" fill="black"/>
</g>
<g opacity="0.997">
<path opacity="0.997" d="M475.291 799.446L514.472 971.524H511.295C502.4 918.022 476.185 853.142 467.29 799.64L475.291 799.446Z" fill="#666666"/>
<path opacity="0.997" d="M514.403 971.171C515.323 971.146 515.178 974.213 515.178 974.213L511.141 974.057C511.141 974.057 510.627 971.428 511.339 970.964C511.734 970.707 513.105 971.207 514.403 971.172L514.403 971.171Z" fill="black"/>
</g>
</g>
<path opacity="0.997" d="M359.307 799.903C326.391 800.363 303.323 635.21 335.718 630.863C342.336 629.339 340.098 686.584 347.147 710.755C354.195 734.925 359.005 768.899 376.155 774.943C410.496 787.047 473.027 775.368 480.64 782.446C488.252 789.523 488.108 800.431 476.669 800.731C465.23 801.032 382.13 799.584 359.307 799.903Z" fill="#54B5FF" fill-opacity="0.996078"/>
</g>
<g filter="url(#filter2_f_403_12)">
<g filter="url(#filter3_f_403_12)">
<path d="M444.507 911.793C444.507 911.793 444.959 939.925 439.534 948.209C438.981 949.176 467.285 960.896 469.456 944.792C469.456 944.792 465.122 939.233 472.451 917.285C473.059 915.465 453.105 918.15 444.507 911.793Z" fill="#B75858"/>
</g>
<g filter="url(#filter4_f_403_12)">
<path d="M529.737 917.409C529.737 917.409 549.836 920.115 561.974 912.611C561.974 912.611 564.494 942.168 567.568 943.549C566.82 948.353 563.626 958.06 537.646 946.966C535.953 947.612 529.737 917.409 529.737 917.409Z" fill="#B75858"/>
</g>
<g filter="url(#filter5_f_403_12)">
<path d="M532.531 962.863C532.403 964.083 531.324 976.879 540.76 978.427C540.76 978.427 620.51 982.914 618.882 972.214" fill="#0B0D2B" fill-opacity="0.996078"/>
</g>
<g filter="url(#filter6_f_403_12)">
<path d="M567.568 943.55C565.011 958.927 537.646 946.967 537.646 946.967C537.646 946.967 531.252 948.95 532.531 962.862C544.117 967.506 549.922 958.927 551.968 974.792L614.625 974.06C614.625 974.06 640.967 972.107 567.568 943.55Z" fill="#FE0057"/>
</g>
<g filter="url(#filter7_f_403_12)">
<path d="M574.675 956.928C574.632 958.444 577.973 958.445 579.161 954.796C579.678 953.209 574.772 953.507 574.675 956.928Z" fill="#FF8080" fill-opacity="0.996078"/>
</g>
<g filter="url(#filter8_f_403_12)">
<path d="M578.168 953C578.125 954.517 581.466 954.518 582.655 950.869C583.172 949.282 578.265 949.579 578.168 953Z" fill="#FF8080" fill-opacity="0.996078"/>
</g>
<g filter="url(#filter9_f_403_12)">
<path d="M578.051 958.611C578.008 960.128 581.349 960.128 582.537 956.479C583.054 954.892 578.148 955.19 578.051 958.611Z" fill="#FD6F24" fill-opacity="0.960784"/>
</g>
<g filter="url(#filter10_f_403_12)">
<path d="M581.544 954.684C581.501 956.2 584.842 956.201 586.031 952.552C586.548 950.965 581.641 951.263 581.544 954.684Z" fill="#FD6F24" fill-opacity="0.960784"/>
</g>
<g filter="url(#filter11_f_403_12)">
<path d="M532.531 962.863C532.403 964.083 531.324 976.879 540.76 978.427C540.76 978.427 620.51 982.914 618.882 972.214" fill="#0B0D2B" fill-opacity="0.996078"/>
</g>
<g filter="url(#filter12_f_403_12)">
<path d="M567.568 943.55C565.011 958.927 537.646 946.967 537.646 946.967C537.646 946.967 531.252 948.95 532.531 962.862C544.117 967.506 549.922 958.927 551.968 974.792L614.625 974.06C614.625 974.06 640.967 972.107 567.568 943.55Z" fill="#FE0057"/>
</g>
<g filter="url(#filter13_f_403_12)">
<path d="M574.675 956.928C574.632 958.444 577.973 958.445 579.161 954.796C579.678 953.209 574.772 953.507 574.675 956.928Z" fill="#FF8080" fill-opacity="0.996078"/>
</g>
<g filter="url(#filter14_f_403_12)">
<path d="M578.168 953C578.125 954.517 581.466 954.518 582.655 950.869C583.172 949.282 578.265 949.579 578.168 953Z" fill="#FF8080" fill-opacity="0.996078"/>
</g>
<g filter="url(#filter15_f_403_12)">
<path d="M578.051 958.611C578.008 960.128 581.349 960.128 582.537 956.479C583.054 954.892 578.148 955.19 578.051 958.611Z" fill="#FD6F24" fill-opacity="0.960784"/>
</g>
<g filter="url(#filter16_f_403_12)">
<path d="M581.544 954.684C581.501 956.2 584.842 956.201 586.031 952.552C586.548 950.965 581.641 951.263 581.544 954.684Z" fill="#FD6F24" fill-opacity="0.960784"/>
</g>
<g filter="url(#filter17_f_403_12)">
<path d="M434.419 964.105C434.291 965.325 433.212 978.121 442.648 979.669C442.648 979.669 522.398 984.157 520.771 973.456" fill="#0B0D2B" fill-opacity="0.996078"/>
</g>
<g filter="url(#filter18_f_403_12)">
<path d="M469.456 944.792C466.899 960.169 439.534 948.209 439.534 948.209C439.534 948.209 433.14 950.192 434.419 964.105C446.006 968.749 451.81 960.169 453.856 976.034L516.513 975.302C516.513 975.302 542.855 973.349 469.456 944.792Z" fill="#FE0057"/>
</g>
<g filter="url(#filter19_f_403_12)">
<path d="M476.562 958.171C476.519 959.688 479.86 959.689 481.049 956.04C481.566 954.453 476.659 954.75 476.562 958.171Z" fill="#FF8080" fill-opacity="0.996078"/>
</g>
<g filter="url(#filter20_f_403_12)">
<path d="M480.057 954.243C480.014 955.759 483.355 955.76 484.543 952.111C485.06 950.524 480.154 950.822 480.057 954.243Z" fill="#FF8080" fill-opacity="0.996078"/>
</g>
<g filter="url(#filter21_f_403_12)">
<path d="M479.939 959.855C479.896 961.371 483.237 961.372 484.425 957.723C484.942 956.136 480.036 956.434 479.939 959.855Z" fill="#FD6F24" fill-opacity="0.960784"/>
</g>
<g filter="url(#filter22_f_403_12)">
<path d="M483.433 955.928C483.39 957.444 486.73 957.445 487.919 953.796C488.436 952.209 483.53 952.506 483.433 955.928Z" fill="#FD6F24" fill-opacity="0.960784"/>
</g>
<g filter="url(#filter23_f_403_12)">
<path d="M434.419 964.105C434.291 965.325 433.212 978.121 442.648 979.669C442.648 979.669 522.398 984.157 520.771 973.456" fill="#0B0D2B" fill-opacity="0.996078"/>
</g>
<g filter="url(#filter24_f_403_12)">
<path d="M469.456 944.792C466.899 960.169 439.534 948.209 439.534 948.209C439.534 948.209 433.14 950.192 434.419 964.105C446.006 968.749 451.81 960.169 453.856 976.034L516.513 975.302C516.513 975.302 542.855 973.349 469.456 944.792Z" fill="#FE0057"/>
</g>
<g filter="url(#filter25_f_403_12)">
<path d="M476.562 958.171C476.519 959.688 479.86 959.689 481.049 956.04C481.566 954.453 476.659 954.75 476.562 958.171Z" fill="#FF8080" fill-opacity="0.996078"/>
</g>
<g filter="url(#filter26_f_403_12)">
<path d="M480.057 954.243C480.014 955.759 483.355 955.76 484.543 952.111C485.06 950.524 480.154 950.822 480.057 954.243Z" fill="#FF8080" fill-opacity="0.996078"/>
</g>
<g filter="url(#filter27_f_403_12)">
<path d="M479.939 959.855C479.896 961.371 483.237 961.372 484.425 957.723C484.942 956.136 480.036 956.434 479.939 959.855Z" fill="#FD6F24" fill-opacity="0.960784"/>
</g>
<g filter="url(#filter28_f_403_12)">
<path d="M483.433 955.928C483.39 957.444 486.73 957.445 487.919 953.796C488.436 952.209 483.53 952.506 483.433 955.928Z" fill="#FD6F24" fill-opacity="0.960784"/>
</g>
<g filter="url(#filter29_f_403_12)">
<path d="M514.669 720.615C514.669 720.615 558.071 737.529 536.37 783.784C536.37 783.784 495.862 840.739 473.438 917.024C473.438 917.024 439.802 922.547 443.418 904.252C443.418 904.252 458.247 839.013 464.396 809.672C464.396 809.672 467.289 794.83 468.736 785.165C468.736 785.165 456.389 790.428 442.205 788.646C421.554 786.053 403.72 791.732 400.305 787.514C400.305 787.514 465.119 778.951 473.076 770.322L514.669 720.615Z" fill="#090E2B"/>
</g>
<path d="M348.948 711.84C348.948 711.84 281.314 838.867 467.941 773.282C467.941 773.282 494.414 876.352 528.385 916.11C535.511 924.45 562.143 914.035 562.143 914.035C562.143 914.035 527.941 726.09 516.365 721.211C468.963 701.235 348.948 698.075 348.948 711.84Z" fill="#0D1D68"/>
<path opacity="0.996774" d="M410.963 579.154C415.951 586.056 421.964 594.536 431.705 594.804C440.042 593.7 444.714 585.8 446.905 578.786C450.13 572.183 460.829 569.111 459.443 560.6C458.005 554.555 448.203 552.503 450.007 545.479C452.634 540.025 452.819 533.733 453.69 527.814C454.167 521.89 454.148 515.671 451.198 510.305C450.637 505.285 446.317 504.236 442.127 504.722C446.752 498.119 438.15 489.753 431.613 487.25C424.394 482.976 416.178 491.232 409.007 486.786C400.669 483.342 392.498 488.123 384.734 490.01C377.942 492.499 378.811 502.21 370.92 502.221C365.117 506.523 368.355 514.176 365.243 519.722C363.547 525.295 362.768 531.081 361.039 536.646C354.328 541.069 353.438 549.561 351.462 555.536C345.775 556.541 339.263 557.8 339.142 564.556C334.271 569.122 327.817 574.926 332.714 581.766C332.94 586.514 337.293 588.807 340.864 589.312C344.105 595.242 348.998 604.344 357.581 601.391C364.948 599.495 371.739 594.396 379.728 595.603C386.591 594.363 391.453 585.224 399.121 588.77C404.78 590.003 409.955 584.103 410.963 579.154Z" fill="#201717"/>
<path d="M384.901 582.128C384.901 582.128 389.999 580.603 391.277 578.601C396.632 570.208 394.859 558.779 392.774 549.156C392.155 546.297 390.787 543.456 388.731 541.294C385.188 537.57 376.653 543.251 375.274 533.372C374.799 529.97 380.139 519.262 392.594 528.646C397.847 532.605 397.671 512.914 408.043 514.236C420.896 515.873 423.25 509.195 425.867 514.212C428.623 519.493 434.332 516.52 438.103 516.947C437.149 520.25 436.436 531.529 439.218 537.074C441.023 540.671 432.648 561.107 429.708 562.929C420.635 568.553 407.714 561.149 407.714 561.149C402.74 559.701 408.963 571.475 411.204 575.659C412.163 577.449 414.977 581.362 416.872 581.656C416.872 581.656 415.827 588.593 411.484 592.166C408.369 594.729 385.609 591.197 384.901 582.128Z" fill="#B75858"/>
<path d="M399.987 554.879L404.255 559.476C404.121 559.371 403.986 559.264 403.85 559.152C402.517 558.06 401.087 556.629 399.987 554.879Z" stroke="black"/>
<path d="M384.901 582.129C384.901 582.129 355.746 582.373 348.073 591.892C348.073 591.892 339.445 605.685 332.484 622.844C328.726 632.108 322.151 639.199 320.985 648.783C320.985 648.783 341.092 650.501 351.435 652.918C354.416 653.615 355.622 643.478 357.351 642.972C357.982 642.787 358.345 644.088 358.303 647.946C358.303 647.946 361.42 696.452 347.613 710.727C347.613 710.727 338.82 723.405 340.991 734.969C342.489 742.956 381.876 728.662 416.589 711.708C416.589 711.708 427.251 707.009 433.038 709.425C433.038 709.425 450.218 717.192 439.548 700.796C439.548 700.796 432.195 694.972 432.195 674.606C432.195 674.606 436.293 648.673 438.644 643.323C438.644 643.323 441.879 641.036 444.106 644.857L444.466 649.539C444.466 649.539 466.981 644.879 474.124 642.118C474.124 642.118 456.51 582.617 433.748 583.837C433.748 583.837 420.398 583.005 416.871 580.244C412.351 576.704 415.067 603.606 384.901 582.129Z" fill="#4424F6"/>
<mask id="path-44-inside-1_403_12" fill="white">
<path d="M440.521 642.721C440.521 642.721 445.516 616.743 438.644 610.875L440.521 642.721Z"/>
</mask>
<path d="M440.521 642.721C443.467 643.288 443.467 643.287 443.467 643.287C443.467 643.286 443.468 643.286 443.468 643.285C443.468 643.284 443.468 643.282 443.469 643.28C443.47 643.275 443.471 643.269 443.472 643.262C443.475 643.247 443.479 643.226 443.484 643.199C443.494 643.145 443.509 643.067 443.527 642.966C443.564 642.764 443.616 642.471 443.68 642.098C443.807 641.353 443.979 640.289 444.164 638.995C444.533 636.413 444.954 632.89 445.155 629.16C445.355 625.454 445.345 621.426 444.802 617.874C444.284 614.482 443.181 610.805 440.592 608.594L436.696 613.157C437.543 613.88 438.393 615.65 438.871 618.78C439.325 621.749 439.354 625.315 439.164 628.837C438.975 632.336 438.577 635.674 438.224 638.146C438.048 639.38 437.884 640.39 437.765 641.089C437.706 641.438 437.657 641.709 437.624 641.891C437.608 641.981 437.595 642.05 437.587 642.094C437.582 642.117 437.579 642.133 437.577 642.143C437.576 642.148 437.576 642.152 437.575 642.154C437.575 642.155 437.575 642.155 437.575 642.155C437.575 642.156 437.575 642.155 437.575 642.155C437.575 642.155 437.575 642.155 440.521 642.721Z" fill="black" fill-opacity="0.2" mask="url(#path-44-inside-1_403_12)"/>
<mask id="path-46-inside-2_403_12" fill="white">
<path d="M357.57 643.251C357.57 643.251 365.941 627.567 360.894 611.835L357.57 643.251Z"/>
</mask>
<path d="M357.57 643.251C360.217 644.663 360.217 644.662 360.218 644.661C360.218 644.661 360.219 644.66 360.219 644.659C360.22 644.657 360.221 644.656 360.222 644.653C360.224 644.649 360.227 644.644 360.23 644.638C360.237 644.626 360.245 644.609 360.256 644.59C360.276 644.55 360.305 644.495 360.34 644.425C360.41 644.286 360.508 644.089 360.628 643.837C360.869 643.333 361.198 642.609 361.574 641.695C362.324 639.872 363.263 637.279 364.036 634.165C365.573 627.975 366.506 619.508 363.751 610.919L358.037 612.752C360.329 619.894 359.6 627.135 358.213 632.719C357.524 635.493 356.687 637.804 356.025 639.413C355.695 640.216 355.41 640.84 355.212 641.255C355.113 641.463 355.036 641.618 354.986 641.716C354.961 641.765 354.943 641.801 354.933 641.821C354.927 641.831 354.924 641.838 354.922 641.841C354.922 641.842 354.921 641.843 354.921 641.842C354.922 641.842 354.922 641.842 354.922 641.841C354.922 641.841 354.923 641.84 354.923 641.84C354.923 641.839 354.924 641.838 357.57 643.251Z" fill="black" fill-opacity="0.2" mask="url(#path-46-inside-2_403_12)"/>
<g filter="url(#filter30_f_403_12)">
<path d="M419.133 609.848C409.91 610.021 410.793 624.535 410.793 624.535C410.793 624.535 421.102 642.672 417.485 647.677C418.504 639.598 414.409 632.093 410.793 624.535C403.198 620.738 406.09 637.305 406.09 637.305C402.404 648.582 386.64 651.68 363.641 658.858C336.835 667.224 358.551 653.102 347.19 650.286C337.343 647.845 325.301 649.177 325.301 649.177C325.301 649.177 317.478 685.458 326.158 686.839C326.158 686.839 376.975 692.188 415.132 649.386C415.132 649.386 417.85 644.502 422.197 651.214C422.197 651.214 450.957 685.95 467.033 678.728C478.452 673.598 471.547 642.848 471.547 642.848C471.547 642.848 456.975 644.552 447.808 648.66C446.383 649.299 453.227 650.92 449.219 652.964C447.261 653.963 434.043 650.06 426.797 643.517C431.68 611.933 419.133 609.848 419.133 609.848Z" fill="#B75858"/>
</g>
<path d="M350.031 661.375C350.031 661.375 341.194 664.091 334.754 659.088L350.031 661.375Z" fill="#A44040"/>
<path d="M449.704 653.204C449.704 653.204 457.032 656.537 462.373 650.398L449.704 653.204Z" fill="#A44040"/>
<path d="M417.681 528.238C415.776 528.352 409.644 524.068 407.189 524.107C404.899 524.143 398.912 525.866 398.008 524.197C396.988 522.311 400.96 520.403 403.42 519.789C409.55 519.381 411.856 519.776 417.261 523.27C418.896 524.327 419.775 528.114 417.681 528.239V528.238Z" fill="#3F2E2E" stroke="black" stroke-width="0.2"/>
<path d="M383.585 533.32C383.989 533.186 384.333 532.894 384.518 532.525C384.703 532.156 384.727 531.717 384.582 531.332C384.437 530.947 384.126 530.622 383.738 530.45C383.35 530.278 382.889 530.26 382.487 530.403C382.151 530.522 381.86 530.75 381.658 531.034C381.456 531.317 381.343 531.655 381.318 531.997C381.269 532.681 381.576 533.359 382.049 533.876C382.575 534.452 383.323 534.853 384.12 534.924C384.518 534.96 384.925 534.915 385.302 534.784C385.678 534.653 386.022 534.437 386.291 534.154C386.638 533.788 386.854 533.315 386.921 532.825C386.989 532.336 386.911 531.832 386.721 531.373C386.341 530.455 385.529 529.742 384.609 529.291C383.988 528.988 383.306 528.789 382.61 528.751C381.913 528.713 381.202 528.84 380.586 529.153C379.925 529.487 379.387 530.031 379.055 530.671C378.722 531.311 378.595 532.043 378.672 532.753C378.749 533.463 379.027 534.15 379.453 534.737C379.878 535.324 380.45 535.812 381.098 536.168C381.978 536.652 383.003 536.894 384.018 536.858C385.034 536.821 386.036 536.506 386.876 535.96" stroke="black" stroke-width="0.395"/>
<path d="M421.589 528.931C424.685 534.37 426.056 537.334 425.543 539.58C425.04 541.776 419.706 540.618 419.706 540.618" fill="#AA4949"/>
<path d="M421.589 528.931C424.685 534.37 426.056 537.334 425.543 539.58C425.04 541.776 419.706 540.618 419.706 540.618" stroke="#782121" stroke-width="0.538"/>
<path d="M424.76 527.816C426.33 527.955 431.505 524.507 433.531 524.597C435.423 524.681 440.325 526.266 441.113 524.887C442.004 523.329 438.771 521.637 436.754 521.065C431.7 520.579 429.786 520.857 425.232 523.66C423.854 524.508 423.033 527.662 424.76 527.816Z" fill="#3F2E2E" stroke="black" stroke-width="0.2"/>
<path d="M398.561 525.647C398.572 526.51 396.132 538.712 407.753 538.699C410.906 538.695 413.233 537.369 414.902 535.553C418.321 531.833 418.973 526.054 418.286 525.373C417.667 524.759 398.555 525.197 398.561 525.647V525.647Z" stroke="black" stroke-width="0.890696"/>
<path d="M426.35 524.934C425.045 524.85 423.871 538.778 434.769 537.622C441.248 536.935 441.995 524.978 440.437 524.745C438.836 524.505 429.592 525.141 426.35 524.934V524.934Z" stroke="black" stroke-width="0.910085"/>
<path d="M425.838 525.024H418.209C418.131 525.024 418.067 525.078 418.067 525.143C418.067 525.209 418.131 525.263 418.209 525.263H425.838C425.916 525.263 425.98 525.209 425.98 525.143C425.98 525.078 425.916 525.024 425.838 525.024Z" fill="black" stroke="black" stroke-width="0.622324"/>
<path d="M398.313 525.749H379.284C379.147 525.749 379.035 525.843 379.035 525.958C379.035 526.074 379.147 526.167 379.284 526.167H398.313C398.45 526.167 398.562 526.074 398.562 525.958C398.562 525.843 398.45 525.749 398.313 525.749Z" fill="black" stroke="black" stroke-width="0.921954"/>
<path d="M442.889 525.648L440.875 524.433C440.728 524.345 440.503 524.359 440.374 524.465C440.244 524.571 440.258 524.73 440.405 524.818L442.42 526.033C442.567 526.122 442.791 526.108 442.921 526.001C443.051 525.895 443.036 525.737 442.889 525.648Z" fill="black" stroke="black" stroke-width="1.70706"/>
<path d="M405.315 530.404C405.467 531.423 405.964 532.391 406.714 533.13C407.464 533.869 408.463 534.375 409.525 534.552C410.871 534.777 412.307 534.464 413.417 533.703C414.528 532.942 415.297 531.743 415.504 530.453" fill="#A44040"/>
<path d="M405.315 530.404C405.467 531.423 405.964 532.391 406.714 533.13C407.464 533.869 408.463 534.375 409.525 534.552C410.871 534.777 412.307 534.464 413.417 533.703C414.528 532.942 415.297 531.743 415.504 530.453" stroke="black" stroke-width="0.385452"/>
<path d="M427.446 529.71C427.4 530.55 427.688 531.404 428.237 532.062C428.787 532.721 429.594 533.178 430.463 533.324C431.533 533.504 432.682 533.198 433.501 532.516C434.319 531.834 434.791 530.789 434.749 529.753" fill="#A44040"/>
<path d="M427.446 529.71C427.4 530.55 427.688 531.404 428.237 532.062C428.787 532.721 429.594 533.178 430.463 533.324C431.533 533.504 432.682 533.198 433.501 532.516C434.319 531.834 434.791 530.789 434.749 529.753" stroke="black" stroke-width="0.304634"/>
<path d="M415.685 548.561C415.571 550.067 416.218 551.608 417.39 552.621C418.562 553.634 420.233 554.097 421.791 553.841C423.095 553.627 424.303 552.92 425.094 551.908C425.886 550.896 426.253 549.59 426.098 548.336" stroke="black" stroke-width="0.771985" stroke-linecap="round"/>
<path d="M396.579 519.956C396.14 521.169 395.211 522.15 394.359 523.144C393.934 523.641 393.521 524.151 393.191 524.71C392.861 525.269 392.614 525.88 392.541 526.518C392.422 527.552 392.778 528.613 393.44 529.439C394.103 530.264 395.058 530.857 396.095 531.177C397.131 531.498 398.246 531.554 399.326 531.419C400.407 531.284 401.455 530.963 402.452 530.545C406.909 528.679 410.222 525.018 414.2 522.342C415.901 521.198 417.738 520.225 419.292 518.904C420.07 518.244 420.773 517.496 421.308 516.644C421.842 515.792 422.203 514.831 422.276 513.841C422.344 512.917 422.158 511.98 421.772 511.13C421.385 510.28 420.801 509.516 420.093 508.882C418.677 507.613 416.795 506.885 414.876 506.603C411.037 506.039 407.182 507.166 403.37 507.875C402.245 508.084 401.106 508.259 400.032 508.643C398.959 509.027 397.94 509.644 397.313 510.56C396.855 511.228 396.628 512.023 396.554 512.818C396.479 513.614 396.549 514.415 396.645 515.208C396.741 516.002 396.863 516.794 396.891 517.592C396.919 518.39 396.852 519.201 396.579 519.956H396.579Z" fill="#201717"/>
</g>
<g filter="url(#filter31_f_403_12)">
<path d="M7.91202 830.838C-29.6632 833.463 77.7872 863.5 96.3825 866.202C104.533 864.937 66.9254 841.894 66.9254 841.894C66.9254 841.894 45.6428 828.201 7.91202 830.838Z" fill="#009BA0" fill-opacity="0.992157"/>
</g>
<g filter="url(#filter32_f_403_12)">
<path d="M102.128 671.5C69.6797 686.994 119.16 759.862 123.305 773.399C133.71 750.61 137.636 723.623 129.467 700.539C125.104 688.21 114.322 665.678 102.128 671.5Z" fill="#009BA0" fill-opacity="0.992157"/>
</g>
<g filter="url(#filter33_f_403_12)">
<path d="M244.932 807.335C225.722 801.517 182.671 829.244 173.442 858.745C195.938 855.718 208.724 847.302 222.753 836.197C232.375 828.581 256.848 810.944 244.932 807.335Z" fill="#009BA0" fill-opacity="0.992157"/>
</g>
<g filter="url(#filter34_f_403_12)">
<path d="M31.4521 736.598C23.2781 741.209 29.8855 756.664 36.2408 763.397C93.413 823.967 90.7011 822.148 122.074 852.842C126.954 839.952 122.6 812.358 110.99 796.984C84.5901 762.024 60.6164 720.145 31.4521 736.598Z" fill="#009BA0" fill-opacity="0.992157"/>
</g>
<g filter="url(#filter35_f_403_12)">
<path d="M169.544 702.755C145.327 740.265 136.532 789.494 156.498 830.445C184.437 837.936 195.891 728.393 169.544 702.755Z" fill="#009BA0" fill-opacity="0.992157"/>
</g>
<g filter="url(#filter36_f_403_12)">
<path d="M11.1709 835.94C29.0606 837.177 46.7346 841.213 63.2724 847.841C79.7105 854.428 95.0203 863.572 108.414 874.802" stroke="black" stroke-width="3" stroke-linecap="round"/>
</g>
<g filter="url(#filter37_f_403_12)">
<path d="M42.0225 744.747C58.3483 755.972 73.0152 769.39 85.4549 784.483C109.312 813.429 124.802 848.591 129.786 885.11" stroke="black" stroke-width="3" stroke-linecap="round"/>
</g>
<g filter="url(#filter38_f_403_12)">
<path d="M106.621 682.934C109.548 693.25 112.081 703.667 114.211 714.16C118.189 733.756 120.761 753.585 123.305 773.397C127.414 805.393 131.46 837.395 135.444 869.405" stroke="black" stroke-width="3" stroke-linecap="round"/>
</g>
<g filter="url(#filter39_f_403_12)">
<path d="M170.143 721.623C169.231 738.043 167.759 754.434 165.73 770.763C163.249 790.735 159.937 810.604 156.498 830.446C153.11 849.998 149.597 869.53 145.961 889.042" stroke="black" stroke-width="3" stroke-linecap="round"/>
</g>
<g filter="url(#filter40_f_403_12)">
<path d="M241.274 811.678C224.165 817.146 208.212 825.886 194.635 837.227C179.982 849.468 168.117 864.733 160.095 881.668" stroke="black" stroke-width="3" stroke-miterlimit="3.6" stroke-linecap="round"/>
</g>
<g filter="url(#filter41_f_403_12)">
<path d="M133.961 856.871C132.242 899.867 123.008 880.439 105.494 872.3C112.891 893.579 117.82 902.316 100.867 911.873C82.208 922.391 89.417 955.677 103.69 969.025C117.92 982.333 148.524 983.161 163.438 970.554C178.4 957.907 180.522 922.384 169.084 913.585C154.875 902.654 153.992 903.192 168.333 864.944C142.582 915.839 140.711 874.013 133.961 856.871H133.961Z" fill="#FFB201"/>
</g>
<path d="M1416.03 923.394C1445.71 921.567 1551.09 949.758 1502.29 772.454C1487.35 718.166 1477.92 727.914 1480.73 672.971C1483.78 613.012 1393.26 459.14 1374.09 549.475C1354.92 639.81 1353.54 627.35 1333.36 662.68C1283.06 750.713 1352.16 771.126 1320.83 797.774C1264.43 845.743 1358.51 926.935 1416.03 923.394Z" fill="#FFB201"/>
<path d="M1417.15 623.206H1411.64V974.856H1417.15V623.206Z" fill="black"/>
<path d="M1413.76 708.673C1426.26 706.695 1437.93 700.248 1445.95 690.884C1454.04 681.44 1458.35 669.113 1457.81 656.925" stroke="black" stroke-width="9" stroke-linecap="round" stroke-linejoin="round"/>
<path d="M1416.45 855.93C1435.93 852.223 1453.16 839.037 1461.19 821.693C1466.19 810.876 1467.7 798.613 1465.46 786.982" stroke="black" stroke-width="9" stroke-linecap="round" stroke-linejoin="round"/>
<path d="M1414.75 759.849C1398.68 760.915 1382.25 754.857 1371.11 743.759C1359.36 732.057 1353.77 714.973 1356.47 698.97" stroke="black" stroke-width="9" stroke-linecap="round" stroke-linejoin="round"/>
<path d="M1130.68 973.501C1110.16 898.173 1026.95 837.994 1031.23 767.985C1045.34 724.407 1121.02 738.435 1126.78 769.156C1147.71 880.779 1145.06 973.501 1145.06 973.501H1130.68Z" fill="#017C7F"/>
<g filter="url(#filter42_f_403_12)">
<path d="M1145.06 973.5C1146.41 867.654 1101.63 766.966 1113.27 670.328C1123.07 616.569 1178.76 629.395 1216.77 652.935C1315.41 737.943 1232.89 889.402 1191.19 973.5H1145.06Z" fill="#009BA0"/>
</g>
<path d="M1172.06 972.319C1198.75 909.116 1208.01 839.294 1198.66 771.736C1192.93 730.308 1180.3 689.756 1161.39 652.069" stroke="black" stroke-width="9" stroke-linecap="round"/>
<path d="M1172.17 973.784C1172.17 973.784 1221.43 820.903 1283.92 775.205C1316.63 751.283 1367.92 712.325 1404.31 748.344C1438.51 782.193 1386.86 834.797 1331.68 869.449C1227.22 935.044 1231.02 973.501 1231.02 973.501C1210.76 973.937 1192.41 973.727 1172.17 973.784Z" fill="#FFB201"/>
<path d="M1192.13 972.262C1213.69 915.56 1248.49 863.483 1293.26 820.914C1314.61 800.622 1338.18 782.472 1363.48 766.859" stroke="black" stroke-width="9" stroke-linecap="round"/>
<g filter="url(#filter43_f_403_12)">
<path d="M842.329 21.8352H475.319C451.339 21.8352 431.9 40.3876 431.9 63.2731V286.147C431.9 309.033 451.339 327.585 475.319 327.585H842.329C866.308 327.585 885.747 309.033 885.747 286.147V63.2731C885.747 40.3876 866.308 21.8352 842.329 21.8352Z" fill="black"/>
<path d="M842.329 21.8352H475.319C451.339 21.8352 431.9 40.3876 431.9 63.2731V286.147C431.9 309.033 451.339 327.585 475.319 327.585H842.329C866.308 327.585 885.747 309.033 885.747 286.147V63.2731C885.747 40.3876 866.308 21.8352 842.329 21.8352Z" stroke="black" stroke-opacity="0.992157" stroke-width="8"/>
</g>
<path d="M816.967 4H449.956C425.977 4 406.538 22.5524 406.538 45.4379V268.312C406.538 291.197 425.977 309.75 449.956 309.75H816.967C840.946 309.75 860.385 291.197 860.385 268.312V45.4379C860.385 22.5524 840.946 4 816.967 4Z" fill="white" stroke="black" stroke-opacity="0.992157" stroke-width="8"/>
<path d="M496.817 42.4524H452.727C446.472 42.4524 441.401 47.2921 441.401 53.2623V95.3404C441.401 101.311 446.472 106.15 452.727 106.15H496.817C503.072 106.15 508.143 101.311 508.143 95.3404V53.2623C508.143 47.2921 503.072 42.4524 496.817 42.4524Z" fill="#FFB201"/>
<path d="M556.339 101.318C584.071 97.0308 610.12 83.4158 628.84 63.4238C630.721 61.4158 632.549 59.3181 633.775 56.8927C635.001 54.4673 635.588 51.6579 634.882 49.0503C634.461 47.494 633.589 46.056 632.411 44.9071C631.233 43.7581 629.755 42.8978 628.157 42.3896C624.961 41.3732 621.35 41.807 618.372 43.3092C615.394 44.8115 613.039 47.3214 611.528 50.1947C610.017 53.068 609.32 56.2909 609.205 59.5038C609.031 64.3733 610.184 69.2745 612.475 73.6285C614.766 77.9824 618.187 81.7834 622.32 84.6437C630.586 90.3644 641.639 92.0953 651.497 89.5575C662.638 86.6894 671.573 79.0147 681.087 72.7835C685.844 69.6678 690.886 66.8496 696.388 65.1936C701.891 63.5377 707.915 63.1007 713.426 64.7305C717.559 65.9529 721.258 68.2854 724.478 71.0438C727.699 73.8022 730.479 76.9901 733.228 80.1802C735.976 83.3703 738.716 86.586 741.869 89.414C745.023 92.242 748.627 94.6893 752.697 96.0909C759.974 98.5965 768.522 97.4186 774.759 93.0509C780.996 88.6832 784.738 81.2537 784.417 73.8773" stroke="#FFB201" stroke-width="10" stroke-linecap="round"/>
<path d="M802.984 130.2H458.852C452.597 130.2 447.526 135.04 447.526 141.01V260.454C447.526 266.424 452.597 271.264 458.852 271.264H802.984C809.24 271.264 814.311 266.424 814.311 260.454V141.01C814.311 135.04 809.24 130.2 802.984 130.2Z" fill="#C7D2F2"/>
<path d="M781.984 159.383H477.964C474.34 159.383 471.403 162.186 471.403 165.645C471.403 169.103 474.34 171.906 477.964 171.906H781.984C785.608 171.906 788.546 169.103 788.546 165.645C788.546 162.186 785.608 159.383 781.984 159.383Z" fill="white"/>
<path d="M781.984 195.57H477.964C474.34 195.57 471.403 198.374 471.403 201.832C471.403 205.29 474.34 208.094 477.964 208.094H781.984C785.608 208.094 788.546 205.29 788.546 201.832C788.546 198.374 785.608 195.57 781.984 195.57Z" fill="white"/>
<path d="M781.434 228.598H478.514C474.587 228.598 471.403 231.637 471.403 235.385C471.403 239.133 474.587 242.172 478.514 242.172H781.434C785.362 242.172 788.546 239.133 788.546 235.385C788.546 231.637 785.362 228.598 781.434 228.598Z" fill="white"/>
<g filter="url(#filter44_f_403_12)">
<path d="M1071.18 238.291H704.166C680.187 238.291 660.748 256.843 660.748 279.728V502.602C660.748 525.488 680.187 544.04 704.166 544.04H1071.18C1095.16 544.04 1114.6 525.488 1114.6 502.602V279.728C1114.6 256.843 1095.16 238.291 1071.18 238.291Z" fill="black"/>
<path d="M1071.18 238.291H704.166C680.187 238.291 660.748 256.843 660.748 279.728V502.602C660.748 525.488 680.187 544.04 704.166 544.04H1071.18C1095.16 544.04 1114.6 525.488 1114.6 502.602V279.728C1114.6 256.843 1095.16 238.291 1071.18 238.291Z" stroke="black" stroke-opacity="0.992157" stroke-width="8"/>
</g>
<path d="M1045.81 220.454H678.805C654.825 220.454 635.386 239.006 635.386 261.892V484.766C635.386 507.651 654.825 526.204 678.805 526.204H1045.81C1069.79 526.204 1089.23 507.651 1089.23 484.766V261.892C1089.23 239.006 1069.79 220.454 1045.81 220.454Z" fill="white" stroke="black" stroke-opacity="0.992157" stroke-width="8"/>
<path d="M689.435 426.031C689.435 426.031 745.109 324.118 786.878 336.854C821.15 347.304 820.177 410.971 843.609 415.839C903.513 428.284 893.095 304.635 966.415 298.635C983.232 297.259 1022.27 357.32 1029.43 400.71" stroke="#FFB201" stroke-width="15" stroke-linecap="round"/>
<path d="M692.266 444.947C692.266 444.947 747.561 405.26 779.698 406.091C806.163 406.775 823.31 442.334 849.777 441.762C872.016 441.281 891.067 430.994 907.175 409.276C937.19 368.811 959.481 425.381 979.332 412.378C1015.88 388.441 1028.24 316.528 1021.51 292.027" stroke="#099EA3" stroke-width="15" stroke-linecap="round"/>
<path d="M962.303 316.104C972.077 316.104 980.001 308.542 980.001 299.214C980.001 289.885 972.077 282.323 962.303 282.323C952.529 282.323 944.605 289.885 944.605 299.214C944.605 308.542 952.529 316.104 962.303 316.104Z" fill="#FF0000"/>
<defs>
<filter id="filter0_f_403_12" x="46.7967" y="973.203" width="637.429" height="9.26727" filterUnits="userSpaceOnUse" color-interpolation-filters="sRGB">
<feFlood flood-opacity="0" result="BackgroundImageFix"/>
<feBlend mode="normal" in="SourceGraphic" in2="BackgroundImageFix" result="shape"/>
<feGaussianBlur stdDeviation="0.0015703" result="effect1_foregroundBlur_403_12"/>
</filter>
<filter id="filter1_f_403_12" x="1029.42" y="973.204" width="463.585" height="9.26634" filterUnits="userSpaceOnUse" color-interpolation-filters="sRGB">
<feFlood flood-opacity="0" result="BackgroundImageFix"/>
<feBlend mode="normal" in="SourceGraphic" in2="BackgroundImageFix" result="shape"/>
<feGaussianBlur stdDeviation="0.00133915" result="effect1_foregroundBlur_403_12"/>
</filter>
<filter id="filter2_f_403_12" x="320.981" y="485.568" width="298.247" height="495.039" filterUnits="userSpaceOnUse" color-interpolation-filters="sRGB">
<feFlood flood-opacity="0" result="BackgroundImageFix"/>
<feBlend mode="normal" in="SourceGraphic" in2="BackgroundImageFix" result="shape"/>
<feGaussianBlur stdDeviation="0.00192597" result="effect1_foregroundBlur_403_12"/>
</filter>
<filter id="filter3_f_403_12" x="439.523" y="911.79" width="32.9452" height="41.4441" filterUnits="userSpaceOnUse" color-interpolation-filters="sRGB">
<feFlood flood-opacity="0" result="BackgroundImageFix"/>
<feBlend mode="normal" in="SourceGraphic" in2="BackgroundImageFix" result="shape"/>
<feGaussianBlur stdDeviation="0.001551" result="effect1_foregroundBlur_403_12"/>
</filter>
<filter id="filter4_f_403_12" x="529.734" y="912.608" width="37.8368" height="39.4741" filterUnits="userSpaceOnUse" color-interpolation-filters="sRGB">
<feFlood flood-opacity="0" result="BackgroundImageFix"/>
<feBlend mode="normal" in="SourceGraphic" in2="BackgroundImageFix" result="shape"/>
<feGaussianBlur stdDeviation="0.001551" result="effect1_foregroundBlur_403_12"/>
</filter>
<filter id="filter5_f_403_12" x="532.422" y="962.854" width="86.4928" height="16.5144" filterUnits="userSpaceOnUse" color-interpolation-filters="sRGB">
<feFlood flood-opacity="0" result="BackgroundImageFix"/>
<feBlend mode="normal" in="SourceGraphic" in2="BackgroundImageFix" result="shape"/>
<feGaussianBlur stdDeviation="0.00406476" result="effect1_foregroundBlur_403_12"/>
</filter>
<filter id="filter6_f_403_12" x="532.361" y="943.549" width="86.864" height="31.2434" filterUnits="userSpaceOnUse" color-interpolation-filters="sRGB">
<feFlood flood-opacity="0" result="BackgroundImageFix"/>
<feBlend mode="normal" in="SourceGraphic" in2="BackgroundImageFix" result="shape"/>
<feGaussianBlur stdDeviation="0.000298138" result="effect1_foregroundBlur_403_12"/>
</filter>
<filter id="filter7_f_403_12" x="574.669" y="953.866" width="4.53483" height="4.02287" filterUnits="userSpaceOnUse" color-interpolation-filters="sRGB">
<feFlood flood-opacity="0" result="BackgroundImageFix"/>
<feBlend mode="normal" in="SourceGraphic" in2="BackgroundImageFix" result="shape"/>
<feGaussianBlur stdDeviation="0.00248284" result="effect1_foregroundBlur_403_12"/>
</filter>
<filter id="filter8_f_403_12" x="578.163" y="949.939" width="4.53483" height="4.02287" filterUnits="userSpaceOnUse" color-interpolation-filters="sRGB">
<feFlood flood-opacity="0" result="BackgroundImageFix"/>
<feBlend mode="normal" in="SourceGraphic" in2="BackgroundImageFix" result="shape"/>
<feGaussianBlur stdDeviation="0.00248284" result="effect1_foregroundBlur_403_12"/>
</filter>
<filter id="filter9_f_403_12" x="578.045" y="955.549" width="4.53532" height="4.02275" filterUnits="userSpaceOnUse" color-interpolation-filters="sRGB">
<feFlood flood-opacity="0" result="BackgroundImageFix"/>
<feBlend mode="normal" in="SourceGraphic" in2="BackgroundImageFix" result="shape"/>
<feGaussianBlur stdDeviation="0.00248284" result="effect1_foregroundBlur_403_12"/>
</filter>
<filter id="filter10_f_403_12" x="581.539" y="951.622" width="4.53532" height="4.02275" filterUnits="userSpaceOnUse" color-interpolation-filters="sRGB">
<feFlood flood-opacity="0" result="BackgroundImageFix"/>
<feBlend mode="normal" in="SourceGraphic" in2="BackgroundImageFix" result="shape"/>
<feGaussianBlur stdDeviation="0.00248284" result="effect1_foregroundBlur_403_12"/>
</filter>
<filter id="filter11_f_403_12" x="532.422" y="962.854" width="86.4928" height="16.5144" filterUnits="userSpaceOnUse" color-interpolation-filters="sRGB">
<feFlood flood-opacity="0" result="BackgroundImageFix"/>
<feBlend mode="normal" in="SourceGraphic" in2="BackgroundImageFix" result="shape"/>
<feGaussianBlur stdDeviation="0.00406476" result="effect1_foregroundBlur_403_12"/>
</filter>
<filter id="filter12_f_403_12" x="532.361" y="943.549" width="86.864" height="31.2434" filterUnits="userSpaceOnUse" color-interpolation-filters="sRGB">
<feFlood flood-opacity="0" result="BackgroundImageFix"/>
<feBlend mode="normal" in="SourceGraphic" in2="BackgroundImageFix" result="shape"/>
<feGaussianBlur stdDeviation="0.000298138" result="effect1_foregroundBlur_403_12"/>
</filter>
<filter id="filter13_f_403_12" x="574.669" y="953.866" width="4.53483" height="4.02287" filterUnits="userSpaceOnUse" color-interpolation-filters="sRGB">
<feFlood flood-opacity="0" result="BackgroundImageFix"/>
<feBlend mode="normal" in="SourceGraphic" in2="BackgroundImageFix" result="shape"/>
<feGaussianBlur stdDeviation="0.00248284" result="effect1_foregroundBlur_403_12"/>
</filter>
<filter id="filter14_f_403_12" x="578.163" y="949.939" width="4.53483" height="4.02287" filterUnits="userSpaceOnUse" color-interpolation-filters="sRGB">
<feFlood flood-opacity="0" result="BackgroundImageFix"/>
<feBlend mode="normal" in="SourceGraphic" in2="BackgroundImageFix" result="shape"/>
<feGaussianBlur stdDeviation="0.00248284" result="effect1_foregroundBlur_403_12"/>
</filter>
<filter id="filter15_f_403_12" x="578.045" y="955.549" width="4.53532" height="4.02275" filterUnits="userSpaceOnUse" color-interpolation-filters="sRGB">
<feFlood flood-opacity="0" result="BackgroundImageFix"/>
<feBlend mode="normal" in="SourceGraphic" in2="BackgroundImageFix" result="shape"/>
<feGaussianBlur stdDeviation="0.00248284" result="effect1_foregroundBlur_403_12"/>
</filter>
<filter id="filter16_f_403_12" x="581.539" y="951.622" width="4.53532" height="4.02275" filterUnits="userSpaceOnUse" color-interpolation-filters="sRGB">
<feFlood flood-opacity="0" result="BackgroundImageFix"/>
<feBlend mode="normal" in="SourceGraphic" in2="BackgroundImageFix" result="shape"/>
<feGaussianBlur stdDeviation="0.00248284" result="effect1_foregroundBlur_403_12"/>
</filter>
<filter id="filter17_f_403_12" x="434.31" y="964.097" width="86.4928" height="16.5146" filterUnits="userSpaceOnUse" color-interpolation-filters="sRGB">
<feFlood flood-opacity="0" result="BackgroundImageFix"/>
<feBlend mode="normal" in="SourceGraphic" in2="BackgroundImageFix" result="shape"/>
<feGaussianBlur stdDeviation="0.00406476" result="effect1_foregroundBlur_403_12"/>
</filter>
<filter id="filter18_f_403_12" x="434.249" y="944.791" width="86.864" height="31.2435" filterUnits="userSpaceOnUse" color-interpolation-filters="sRGB">
<feFlood flood-opacity="0" result="BackgroundImageFix"/>
<feBlend mode="normal" in="SourceGraphic" in2="BackgroundImageFix" result="shape"/>
<feGaussianBlur stdDeviation="0.000298138" result="effect1_foregroundBlur_403_12"/>
</filter>
<filter id="filter19_f_403_12" x="476.557" y="955.11" width="4.53532" height="4.02287" filterUnits="userSpaceOnUse" color-interpolation-filters="sRGB">
<feFlood flood-opacity="0" result="BackgroundImageFix"/>
<feBlend mode="normal" in="SourceGraphic" in2="BackgroundImageFix" result="shape"/>
<feGaussianBlur stdDeviation="0.00248284" result="effect1_foregroundBlur_403_12"/>
</filter>
<filter id="filter20_f_403_12" x="480.051" y="951.181" width="4.53532" height="4.02287" filterUnits="userSpaceOnUse" color-interpolation-filters="sRGB">
<feFlood flood-opacity="0" result="BackgroundImageFix"/>
<feBlend mode="normal" in="SourceGraphic" in2="BackgroundImageFix" result="shape"/>
<feGaussianBlur stdDeviation="0.00248284" result="effect1_foregroundBlur_403_12"/>
</filter>
<filter id="filter21_f_403_12" x="479.934" y="956.793" width="4.53532" height="4.02263" filterUnits="userSpaceOnUse" color-interpolation-filters="sRGB">
<feFlood flood-opacity="0" result="BackgroundImageFix"/>
<feBlend mode="normal" in="SourceGraphic" in2="BackgroundImageFix" result="shape"/>
<feGaussianBlur stdDeviation="0.00248284" result="effect1_foregroundBlur_403_12"/>
</filter>
<filter id="filter22_f_403_12" x="483.427" y="952.866" width="4.53483" height="4.02287" filterUnits="userSpaceOnUse" color-interpolation-filters="sRGB">
<feFlood flood-opacity="0" result="BackgroundImageFix"/>
<feBlend mode="normal" in="SourceGraphic" in2="BackgroundImageFix" result="shape"/>
<feGaussianBlur stdDeviation="0.00248284" result="effect1_foregroundBlur_403_12"/>
</filter>
<filter id="filter23_f_403_12" x="434.31" y="964.097" width="86.4928" height="16.5146" filterUnits="userSpaceOnUse" color-interpolation-filters="sRGB">
<feFlood flood-opacity="0" result="BackgroundImageFix"/>
<feBlend mode="normal" in="SourceGraphic" in2="BackgroundImageFix" result="shape"/>
<feGaussianBlur stdDeviation="0.00406476" result="effect1_foregroundBlur_403_12"/>
</filter>
<filter id="filter24_f_403_12" x="434.249" y="944.791" width="86.864" height="31.2435" filterUnits="userSpaceOnUse" color-interpolation-filters="sRGB">
<feFlood flood-opacity="0" result="BackgroundImageFix"/>
<feBlend mode="normal" in="SourceGraphic" in2="BackgroundImageFix" result="shape"/>
<feGaussianBlur stdDeviation="0.000298138" result="effect1_foregroundBlur_403_12"/>
</filter>
<filter id="filter25_f_403_12" x="476.557" y="955.11" width="4.53532" height="4.02287" filterUnits="userSpaceOnUse" color-interpolation-filters="sRGB">
<feFlood flood-opacity="0" result="BackgroundImageFix"/>
<feBlend mode="normal" in="SourceGraphic" in2="BackgroundImageFix" result="shape"/>
<feGaussianBlur stdDeviation="0.00248284" result="effect1_foregroundBlur_403_12"/>
</filter>
<filter id="filter26_f_403_12" x="480.051" y="951.181" width="4.53532" height="4.02287" filterUnits="userSpaceOnUse" color-interpolation-filters="sRGB">
<feFlood flood-opacity="0" result="BackgroundImageFix"/>
<feBlend mode="normal" in="SourceGraphic" in2="BackgroundImageFix" result="shape"/>
<feGaussianBlur stdDeviation="0.00248284" result="effect1_foregroundBlur_403_12"/>
</filter>
<filter id="filter27_f_403_12" x="479.934" y="956.793" width="4.53532" height="4.02263" filterUnits="userSpaceOnUse" color-interpolation-filters="sRGB">
<feFlood flood-opacity="0" result="BackgroundImageFix"/>
<feBlend mode="normal" in="SourceGraphic" in2="BackgroundImageFix" result="shape"/>
<feGaussianBlur stdDeviation="0.00248284" result="effect1_foregroundBlur_403_12"/>
</filter>
<filter id="filter28_f_403_12" x="483.427" y="952.866" width="4.53483" height="4.02287" filterUnits="userSpaceOnUse" color-interpolation-filters="sRGB">
<feFlood flood-opacity="0" result="BackgroundImageFix"/>
<feBlend mode="normal" in="SourceGraphic" in2="BackgroundImageFix" result="shape"/>
<feGaussianBlur stdDeviation="0.00248284" result="effect1_foregroundBlur_403_12"/>
</filter>
<filter id="filter29_f_403_12" x="400.305" y="720.615" width="142.141" height="197.191" filterUnits="userSpaceOnUse" color-interpolation-filters="sRGB">
<feFlood flood-opacity="0" result="BackgroundImageFix"/>
<feBlend mode="normal" in="SourceGraphic" in2="BackgroundImageFix" result="shape"/>
<feGaussianBlur stdDeviation="5.06454e-05" result="effect1_foregroundBlur_403_12"/>
</filter>
<filter id="filter30_f_403_12" x="322.062" y="609.845" width="151.557" height="77.2107" filterUnits="userSpaceOnUse" color-interpolation-filters="sRGB">
<feFlood flood-opacity="0" result="BackgroundImageFix"/>
<feBlend mode="normal" in="SourceGraphic" in2="BackgroundImageFix" result="shape"/>
<feGaussianBlur stdDeviation="0.001551" result="effect1_foregroundBlur_403_12"/>
</filter>
<filter id="filter31_f_403_12" x="-0.003102" y="830.497" width="97.5453" height="35.7076" filterUnits="userSpaceOnUse" color-interpolation-filters="sRGB">
<feFlood flood-opacity="0" result="BackgroundImageFix"/>
<feBlend mode="normal" in="SourceGraphic" in2="BackgroundImageFix" result="shape"/>
<feGaussianBlur stdDeviation="0.001551" result="effect1_foregroundBlur_403_12"/>
</filter>
<filter id="filter32_f_403_12" x="91.1571" y="670.554" width="42.6981" height="102.848" filterUnits="userSpaceOnUse" color-interpolation-filters="sRGB">
<feFlood flood-opacity="0" result="BackgroundImageFix"/>
<feBlend mode="normal" in="SourceGraphic" in2="BackgroundImageFix" result="shape"/>
<feGaussianBlur stdDeviation="0.001551" result="effect1_foregroundBlur_403_12"/>
</filter>
<filter id="filter33_f_403_12" x="173.439" y="806.553" width="74.6986" height="52.1954" filterUnits="userSpaceOnUse" color-interpolation-filters="sRGB">
<feFlood flood-opacity="0" result="BackgroundImageFix"/>
<feBlend mode="normal" in="SourceGraphic" in2="BackgroundImageFix" result="shape"/>
<feGaussianBlur stdDeviation="0.001551" result="effect1_foregroundBlur_403_12"/>
</filter>
<filter id="filter34_f_403_12" x="27.6453" y="732.905" width="96.4042" height="119.939" filterUnits="userSpaceOnUse" color-interpolation-filters="sRGB">
<feFlood flood-opacity="0" result="BackgroundImageFix"/>
<feBlend mode="normal" in="SourceGraphic" in2="BackgroundImageFix" result="shape"/>
<feGaussianBlur stdDeviation="0.001551" result="effect1_foregroundBlur_403_12"/>
</filter>
<filter id="filter35_f_403_12" x="145.461" y="702.752" width="38.9286" height="128.063" filterUnits="userSpaceOnUse" color-interpolation-filters="sRGB">
<feFlood flood-opacity="0" result="BackgroundImageFix"/>
<feBlend mode="normal" in="SourceGraphic" in2="BackgroundImageFix" result="shape"/>
<feGaussianBlur stdDeviation="0.001551" result="effect1_foregroundBlur_403_12"/>
</filter>
<filter id="filter36_f_403_12" x="9.6678" y="834.437" width="100.249" height="41.8681" filterUnits="userSpaceOnUse" color-interpolation-filters="sRGB">
<feFlood flood-opacity="0" result="BackgroundImageFix"/>
<feBlend mode="normal" in="SourceGraphic" in2="BackgroundImageFix" result="shape"/>
<feGaussianBlur stdDeviation="0.001551" result="effect1_foregroundBlur_403_12"/>
</filter>
<filter id="filter37_f_403_12" x="40.5194" y="743.244" width="90.7699" height="143.369" filterUnits="userSpaceOnUse" color-interpolation-filters="sRGB">
<feFlood flood-opacity="0" result="BackgroundImageFix"/>
<feBlend mode="normal" in="SourceGraphic" in2="BackgroundImageFix" result="shape"/>
<feGaussianBlur stdDeviation="0.001551" result="effect1_foregroundBlur_403_12"/>
</filter>
<filter id="filter38_f_403_12" x="105.118" y="681.43" width="31.8294" height="189.478" filterUnits="userSpaceOnUse" color-interpolation-filters="sRGB">
<feFlood flood-opacity="0" result="BackgroundImageFix"/>
<feBlend mode="normal" in="SourceGraphic" in2="BackgroundImageFix" result="shape"/>
<feGaussianBlur stdDeviation="0.001551" result="effect1_foregroundBlur_403_12"/>
</filter>
<filter id="filter39_f_403_12" x="144.457" y="720.12" width="27.1888" height="170.425" filterUnits="userSpaceOnUse" color-interpolation-filters="sRGB">
<feFlood flood-opacity="0" result="BackgroundImageFix"/>
<feBlend mode="normal" in="SourceGraphic" in2="BackgroundImageFix" result="shape"/>
<feGaussianBlur stdDeviation="0.001551" result="effect1_foregroundBlur_403_12"/>
</filter>
<filter id="filter40_f_403_12" x="158.592" y="810.174" width="84.1859" height="72.9975" filterUnits="userSpaceOnUse" color-interpolation-filters="sRGB">
<feFlood flood-opacity="0" result="BackgroundImageFix"/>
<feBlend mode="normal" in="SourceGraphic" in2="BackgroundImageFix" result="shape"/>
<feGaussianBlur stdDeviation="0.001551" result="effect1_foregroundBlur_403_12"/>
</filter>
<filter id="filter41_f_403_12" x="89.6473" y="856.868" width="86.7308" height="122.662" filterUnits="userSpaceOnUse" color-interpolation-filters="sRGB">
<feFlood flood-opacity="0" result="BackgroundImageFix"/>
<feBlend mode="normal" in="SourceGraphic" in2="BackgroundImageFix" result="shape"/>
<feGaussianBlur stdDeviation="0.001551" result="effect1_foregroundBlur_403_12"/>
</filter>
<filter id="filter42_f_403_12" x="1111.33" y="632.616" width="151.965" height="340.888" filterUnits="userSpaceOnUse" color-interpolation-filters="sRGB">
<feFlood flood-opacity="0" result="BackgroundImageFix"/>
<feBlend mode="normal" in="SourceGraphic" in2="BackgroundImageFix" result="shape"/>
<feGaussianBlur stdDeviation="0.001551" result="effect1_foregroundBlur_403_12"/>
</filter>
<filter id="filter43_f_403_12" x="427.897" y="17.8314" width="461.855" height="313.758" filterUnits="userSpaceOnUse" color-interpolation-filters="sRGB">
<feFlood flood-opacity="0" result="BackgroundImageFix"/>
<feBlend mode="normal" in="SourceGraphic" in2="BackgroundImageFix" result="shape"/>
<feGaussianBlur stdDeviation="0.00192597" result="effect1_foregroundBlur_403_12"/>
</filter>
<filter id="filter44_f_403_12" x="656.744" y="234.287" width="461.855" height="313.758" filterUnits="userSpaceOnUse" color-interpolation-filters="sRGB">
<feFlood flood-opacity="0" result="BackgroundImageFix"/>
<feBlend mode="normal" in="SourceGraphic" in2="BackgroundImageFix" result="shape"/>
<feGaussianBlur stdDeviation="0.00192597" result="effect1_foregroundBlur_403_12"/>
</filter>
</defs>
</svg>
